<svg xmlns="http://www.w3.org/2000/svg" viewBox="0 0 48 48">
  
<g transform="matrix(3.4285714285714284,0,0,3.4285714285714284,0,0)"><g>
    <circle cx="6.87" cy="5" r="4.5" style="fill: none;stroke: #28527a;stroke-linecap: round;stroke-linejoin: round"></circle>
    <circle cx="6.87" cy="5" r="2" style="fill: none;stroke: #28527a;stroke-linecap: round;stroke-linejoin: round"></circle>
    <path d="M6,9.42l-.88,3.7a.51.51,0,0,1-.26.33.54.54,0,0,1-.43,0L1.11,12a.51.51,0,0,1-.18-.78L3.5,8" style="fill: none;stroke: #28527a;stroke-linecap: round;stroke-linejoin: round"></path>
    <path d="M8,9.37l.9,3.75a.5.5,0,0,0,.27.33.51.51,0,0,0,.42,0L12.89,12a.5.5,0,0,0,.28-.35.48.48,0,0,0-.1-.43L10.39,7.81" style="fill: none;stroke: #28527a;stroke-linecap: round;stroke-linejoin: round"></path>
  </g></g></svg>